<svg height="210mm" viewBox="0 0 297 210" width="297mm" xmlns="http://www.w3.org/2000/svg">
<g fill="none" stroke="black" stroke-width="0.5">
<polyline points="21.220531 165.39726 27.810274 169.32776 35.05915 173.12238 42.960037 176.74936 51.497437 180.17622"/>
<polyline points="29.62804 162.50754 36.343124 166.22252 43.697266 169.78778 51.678635 173.17207 60.26701 176.34367"/>
<polyline points="75.94832 156.7322 83.9964 159.20763 92.52552 161.42851 101.48872 163.369 110.83086 165.00562"/>
<polyline points="114.086845 154.1995 122.907684 155.43547 131.97284 156.34583 141.20963 156.91795 150.54164 157.14374"/>
<polyline points="150.03267 152.01653 158.93745 151.89793 167.78459 151.4362 176.4965 150.63782 184.99896 149.51399"/>
<polyline points="181.71764 151.25272 190.18062 149.9517 198.32849 148.34995 206.10217 146.46857 213.4503 144.33151"/>
<polyline points="212.82695 134.23653 218.39667 131.70715 223.43913 129.01668 227.93936 126.19451 231.89064 123.269295"/>
<polyline points="231.99962 121.658035 235.13553 118.64321 237.73473 115.588585 239.81189 112.51725 241.38585 109.450096"/>
<polyline points="241.22873 110.3659 242.46178 107.311676 243.23116 104.292046 243.5626 101.32172 243.48293 98.413246"/>
<polyline points="241.01088 95.05762 240.11496 92.326385 238.89229 89.684975 237.36902 87.138794 235.5703 84.69193"/>
<polyline points="236.01259 86.35021 234.1213 83.9404 231.98537 81.63397 229.62698 79.43258 227.06694 77.33709"/>
<polyline points="226.0929 77.74121 223.36185 75.74426 220.46318 73.85399 217.41367 72.06963 214.22888 70.390114"/>
<polyline points="212.90015 69.131096 209.52701 67.61984 206.0545 66.20854 202.49358 64.895386 198.85422 63.678513"/>
<polyline points="200.76541 68.453 197.17581 67.13814 193.49974 65.92704 189.7475 64.8179 185.9284 63.808945"/>
<polyline points="179.93465 59.60821 175.98682 58.91383 172.0069 58.30565 167.9998 57.78238 163.97002 57.342865"/>
<polyline points="163.90407 57.084663 159.85864 56.73266 155.799 56.46178 151.72871 56.271328 147.65123 56.160778"/>
<polyline points="150.58502 57.172394 146.49182 57.079113 142.39548 57.06802 138.2995 57.138924 134.20743 57.291805"/>
<polyline points="133.72195 56.866074 129.64458 57.108463 125.578156 57.432034 121.52632 57.837276 117.49288 58.32483"/>
<polyline points="118.3825 59.286472 114.35899 59.854713 110.364075 60.509804 106.40283 61.25279 102.48071 62.08487"/>
<polyline points="103.19228 60.67564 99.30003 61.55191 95.45293 62.516434 91.65729 63.57072 87.92005 64.716354"/>
<polyline points="85.4403 65.28434 81.81171 66.57828 78.26197 67.96745 74.8007 69.45358 71.43839 71.038315"/>
<polyline points="68.837265 69.43537 65.53668 71.09151 62.34668 72.846054 59.27971 74.700554 56.349384 76.65638"/>
<polyline points="54.93699 71.139404 51.81185 72.99515 48.805367 74.94855 45.930687 77.00123 43.202072 79.1546"/>
<polyline points="46.58092 73.21216 43.591423 75.21199 40.730873 77.31062 38.013336 79.50963 35.453983 81.810265"/>
<polyline points="35.782887 87.693115 33.948265 90.31011 32.364258 93.02791 31.053715 95.84432 30.040665 98.75621"/>
<polyline points="41.750572 97.73438 41.10182 100.63149 40.816025 103.60976 40.920193 106.66098 41.441345 109.7753"/>
<polyline points="40.251984 108.71417 41.044685 111.87238 42.296482 115.07443 44.032555 118.30564 46.276222 121.54924"/>
<polyline points="42.669716 116.97995 44.68678 120.227394 47.223167 123.47746 50.298035 126.71022 53.926704 129.90375"/>
<polyline points="42.878777 126.73921 46.251476 130.04987 50.1858 133.31558 54.691498 136.5122 59.772686 139.61404"/>
<polyline points="60.787098 148.75366 67.49782 151.6778 74.76226 154.41362 82.55318 156.9326 90.83474 159.20694"/>
<polyline points="83.42687 147.99542 90.86783 150.29327 98.770966 152.34401 107.08896 154.12251 115.76639 155.6061"/>
<polyline points="120.36083 157.80269 129.59288 158.79803 139.01244 159.45421 148.5436 159.76212 158.10805 159.71745"/>
<polyline points="163.1988 153.0905 172.11642 152.47548 180.86443 151.52713 189.37057 150.25864 197.5683 148.68718"/>
<polyline points="198.84673 136.49527 205.05574 134.33699 210.78629 131.96478 216.00676 129.40878 220.69507 126.69948"/>
<polyline points="219.66702 130.47125 224.48178 127.73383 228.75104 124.87531 232.4708 121.92405 235.64417 118.90696"/>
<polyline points="234.21263 122.63565 237.47235 119.60673 240.19458 116.53583 242.39357 113.44586 244.08778 110.35759"/>
<polyline points="247.96254 108.665565 248.88716 105.60042 249.37245 102.581894 249.4449 99.62238 249.13142 96.7323"/>
<polyline points="249.64604 98.513214 249.19157 95.65088 248.38873 92.86951 247.26384 90.1755 245.84236 87.57385"/>
<polyline points="241.8282 88.93444 240.25252 86.39992 238.41104 83.96428 236.32689 81.63 234.02193 79.398636"/>
<polyline points="238.09685 75.94765 235.38214 73.929535 232.51692 72.010925 229.5161 70.19063 226.39342 68.46721"/>
<polyline points="229.82039 65.62172 226.49869 64.0759 223.09799 62.61733 219.62689 61.24393 216.09311 59.953644"/>
<polyline points="216.897 58.314964 213.28424 57.155163 209.62971 56.070583 205.9383 55.059303 202.21434 54.119514"/>
<polyline points="199.85161 49.51026 196.10149 48.79316 192.33945 48.133606 188.56718 47.530304 184.7861 46.982086"/>
<polyline points="183.09695 45.15881 179.33685 44.717545 175.573 44.325275 171.80592 43.981213 168.03612 43.684677"/>
<polyline points="171.39798 44.668625 167.60966 44.368057 163.81831 44.115974 160.02435 43.911858 156.22807 43.755287"/>
<polyline points="160.04155 44.598564 156.2265 44.436707 152.40909 44.32362 148.58965 44.259026 144.76848 44.242752"/>
<polyline points="145.91153 45.544186 142.05334 45.561172 138.19406 45.62945 134.33414 45.749092 130.47408 45.920265"/>
<polyline points="133.57582 48.99032 129.63896 49.190613 125.705 49.450676 121.775215 49.770977 117.85093 50.152077"/>
<polyline points="120.93796 49.769997 117.01642 50.163155 113.102036 50.617764 109.19637 51.13465 105.30119 51.714767"/>
<polyline points="106.64261 51.232662 102.75838 51.84925 98.88726 52.5302 95.03147 53.276764 91.19349 54.0903"/>
<polyline points="92.64097 53.29846 88.81603 54.141735 85.011894 55.053272 81.23169 56.0347 77.47888 57.08777"/>
<polyline points="74.2594 58.49955 70.575966 59.706085 66.934494 60.99074 63.340508 62.35559 59.80015 63.80279"/>
<polyline points="66.54637 64.09849 63.04844 65.580574 59.62297 67.15115 56.27866 68.81233 53.025063 70.56616"/>
<polyline points="49.100853 70.07914 45.92572 71.93741 42.856354 73.89104 39.904743 75.94202 37.083916 78.092125"/>
<polyline points="30.416622 73.64748 27.38136 75.75581 24.45903 77.962555 21.662405 80.26985"/>
<polyline points="23.321932 82.346725 20.854399 84.829834"/>
<polyline points="26.892603 74.75627 23.898186 76.92508 21.020527 79.1935"/>
<polyline points="30.302025 72.89026 27.218111 74.96861 24.240944 77.14453 21.38273 79.42026"/>
<polyline points="34.306896 69.87232 31.074593 71.809616 27.93103 73.84073 24.88682 75.968124 21.953524 78.19415"/>
<polyline points="40.764 70.68089 37.60826 72.61626 34.5549 74.646935 31.6156 76.77507 28.803158 79.002655"/>
<polyline points="36.394634 61.01943 32.79082 62.591194 29.220722 64.24199 25.689703 65.97455 22.20362 67.79166"/>
<polyline points="36.571854 52.768852 32.795807 54.02318 29.016628 55.339928 25.236012 56.72148 21.455929 58.17032"/>
<polyline points="39.807495 56.166515 36.09505 57.53369 32.395348 58.970497 28.71151 60.47944 25.04715 62.063164"/>
<polyline points="42.601753 59.602528 38.980026 61.087635 35.38981 62.649494 31.836071 64.29072 28.324306 66.01397"/>
<polyline points="46.608017 66.28188 43.240486 68.00621 39.948593 69.819916 36.741478 71.72537 33.629242 73.72494"/>
<polyline points="50.76072 74.7281 47.8687 76.757576 45.12259 78.88783 42.537838 81.11997 40.13121 83.45471"/>
<polyline points="51.717148 87.057144 49.862 89.54226 48.274094 92.12783 46.977463 94.810524 45.997215 97.585846"/>
<polyline points="52.586773 95.80718 51.72557 98.567505 51.22528 101.4112 51.113167 104.32974 51.416573 107.31284"/>
<polyline points="57.6604 110.70111 58.96291 113.72533 60.76951 116.76389 63.10109 119.796906 65.974884 122.80228"/>
<polyline points="69.83984 122.54411 73.262245 125.44185 77.24783 128.25562 81.79531 130.95703 86.89562 133.51671"/>
<polyline points="88.326775 129.52539 93.15497 131.98453 98.51841 134.26457 104.387436 136.33435"/>
<polyline points="108.16826 135.08762"/>
<polyline points="112.12009 133.04448 110.922844 135.08871 110.28728 137.25916"/>
<polyline points="112.95163 137.57419"/>
<polyline points="115.98528 137.7156"/>
<polyline points="119.905754 136.7405 117.589836 138.16461"/>
<polyline points="122.05508 140.25601 129.28519 141.33047 136.76201 142.0792"/>
<polyline points="137.26105 142.95697 145.08224 143.34293 152.9794 143.38382 160.86922 143.07816 168.66895 142.4302"/>
<polyline points="167.06165 141.8822 174.60098 140.94325 181.90482 139.6829 188.90216 138.12051 195.52979 136.27951"/>
<polyline points="193.07332 135.53394 199.10513 133.4451"/>
<polyline points="197.30984 133.10994 202.7409 130.78668 207.665 128.26804 212.05598 125.5872 215.89781 122.77717"/>
<polyline points="215.3347 127.58392 219.67407 124.82926 223.46411 121.963524 226.70316 119.01608 229.39671 116.014565"/>
<polyline points="228.91486 114.75897 230.84242 111.72848 232.25938 108.70132 233.18796 105.6977 233.65314 102.7353"/>
<polyline points="238.02911 102.7404 238.11777 99.820244 237.80215 96.96791 237.11015 94.19369 236.06944 91.50598"/>
<polyline points="234.80301 92.79954 233.56587 90.16804 232.0198 87.63371 230.19072 85.20113 228.10335 82.873634"/>
<polyline points="224.79855 82.77494 222.40273 80.58727 219.79564 78.51063 216.99782 76.54554 214.02832 74.69191"/>
<polyline points="210.17876 68.09802 206.73044 66.66041 203.19052 65.32171 199.56929 64.080086 195.87605 62.933678"/>
<polyline points="191.96896 56.622734 188.13698 55.812332 184.27441 55.077904 180.38522 54.417984 176.47299 53.831215"/>
<polyline points="172.84184 55.55324 168.86719 55.06547 164.87436 54.65358 160.86661 54.31664 156.84685 54.053837"/>
<polyline points="155.54565 48.775085 151.618 48.64568 147.68687 48.575256 143.75345 48.56361 139.81879 48.61063"/>
<polyline points="142.67627 43.647686 138.87039 43.705276 135.06332 43.8098 131.25528 43.96142 127.44644 44.160378"/>
<polyline points="124.4304 46.977154 120.55657 47.289387 116.68543 47.65628 112.81787 48.078487 108.95482 48.55677"/>
<polyline points="107.73595 49.272972 103.87225 49.836937 100.017006 50.460518 96.17183 51.14486 92.33852 51.891212"/>
<polyline points="88.20971 52.45982 84.40822 53.331116 80.624664 54.268257 76.86188 55.272915 73.12298 56.346886"/>
<polyline points="68.37666 53.632942 64.649414 54.72853 60.940437 55.890755 57.25284 57.121662 53.59011 58.423397"/>
<polyline points="53.866917 55.283558 50.17074 56.54061 46.492977 57.866554 42.837013 59.263683 39.206684 60.734406"/>
<polyline points="46.582375 54.155804 42.857834 55.413685 39.142403 56.7375 35.43869 58.129597 31.749714 59.59244"/>
<polyline points="45.64195 49.393105 41.87723 50.485214 38.10449 51.633297 34.324715 52.839397 30.539017 54.105686"/>
<polyline points="50.21453 55.828243 46.523537 57.127483 42.851135 58.496437 39.200817 59.937485 35.57653 61.45311"/>
<polyline points="50.570023 55.51658 46.874153 56.80222 43.19571 58.15696 39.538067 59.583157 35.90503 61.08325"/>
<polyline points="50.29462 52.487736 46.55854 53.66504 42.827446 54.905052 39.103493 56.20998 35.389126 57.58214"/>
<polyline points="59.960655 55.71167 56.2711 56.943283 52.60515 58.24526 48.96659 59.61982 45.35968 61.06931"/>
<polyline points="62.122482 52.08626 58.391018 53.176273 54.6693 54.329006 50.959694 55.54651 47.264854 56.830948"/>
<polyline points="62.743366 45.36921 59.020275 46.237915 55.287437 47.15519 51.54519 48.12262 47.79403 49.141907"/>
<polyline points="63.284065 43.567455 59.58106 44.378838 55.864773 45.235176 52.135223 46.13794 48.39252 47.088696"/>
<polyline points="67.90503 44.390125 64.19409 45.19822 60.473385 46.053085 56.743153 46.956223 53.003746 47.909225"/>
<polyline points="67.113556 69.1486 63.81476 70.81299 60.624104 72.57489 57.553806 74.43591 54.617195 76.39749"/>
<polyline points="55.477417 84.348335 53.33604 86.704056 51.437126 89.16316 49.803413 91.72331 48.4588 94.38121"/>
<polyline points="54.70192 87.78596 52.904408 90.27105 51.38477 92.85619 50.167686 95.537445 49.278843 98.30962"/>
<polyline points="58.602703 100.02741 58.258286 102.84812 58.325703 105.73747 58.832474 108.683105 59.805214 111.6706"/>
<polyline points="59.504635 113.84174 61.333122 116.87528 63.68799 119.90187 66.58618 122.89923 70.039955 125.84304"/>
<polyline points="67.22427 130.72214 71.95797 133.59375 77.2507 136.33627 83.08945 138.92114 89.452835 141.31958"/>
<polyline points="89.445145 142.65907 96.469505 144.8261 103.94357 146.74673 111.81846 148.39606 120.0372 149.75183"/>
<polyline points="114.93373 148.49512 123.22037 149.73662 131.76198 150.66008 140.48636 151.25204 149.3172 151.50371"/>
<polyline points="152.95572 147.53737 161.3999 147.28043 169.75851 146.68408 177.954 145.75696 185.91281 144.51248"/>
<polyline points="187.35869 137.90773 187.98842 134.1373 188.0029 130.43501"/>
<polyline points="189.3717 131.18669 189.26834 127.57383 188.59917 124.075554 187.40498 120.724754 185.72995 117.548004"/>
<polyline points="186.17218 116.57387 184.04637 113.62262 181.5361 110.87956 178.68593 108.355835 175.53868 106.05918"/>
<polyline points="173.70538 105.75859 170.19875 103.78781 166.49016 102.055084 162.61542 100.56074 158.60826 99.3039"/>
<polyline points="158.25784 96.46433 154.12418 95.53389 149.92793 94.82537 145.69571 94.33625 141.45325 94.063866"/>
<polyline points="140.24203 97.84192 136.04042 97.812126 131.89145 98.007744 127.82316 98.42502 123.864044 99.05994"/>
<polyline points="118.72407 96.76429 115.05675 97.84996 111.579994 99.127884 108.32425 100.59261 105.32144 102.23762"/>
<polyline points="105.43607 99.08514 102.54244 100.82337 99.940506 102.72474 97.66401 104.7801 95.74781 106.978355"/>
<polyline points="92.68034 108.02405 91.59863 110.48152 90.97713 113.03286 90.84926 115.65737 91.246185 118.33127"/>
<polyline points="89.3999 118.00165 90.57892 120.72335 92.333145 123.427864 94.67728 126.08253 97.61809 128.65219"/>
<polyline points="97.52524 128.8284 101.22708 131.25598"/>
<polyline points="102.76259 131.94717"/>
<polyline points="103.01535 132.51247"/>
<polyline points="103.59787 130.43774 104.612015 132.93481"/>
<polyline points="104.07182 130.29546 104.8155 132.77718"/>
<polyline points="105.2697 130.00253 105.4705 132.43045 106.28689 134.87834"/>
<polyline points="110.7187 130.55115 109.54873 132.6542 108.933495 134.87794 108.912766 137.18141"/>
<polyline points="100.981316 139.15068 107.80901 141.01135 115.04287 142.6045 122.625275 143.90683 130.49084 144.8985"/>
<polyline points="128.47385 149.57014 137.06018 150.29306 145.78442 150.67914 154.56851 150.72244 163.33319 150.42206"/>
<polyline points="165.4019 144.15582 173.33142 143.35089 181.0529 142.22202 188.49483 140.78595 195.59254 139.06366"/>
<polyline points="194.23543 133.86545 199.78963 131.62074 204.84868 129.16707"/>
<polyline points="205.04536 127.89212 209.1854 125.17282 212.76991 122.32844 215.79324 119.39234 218.2584 116.39609"/>
<polyline points="221.44058 113.537674 222.92363 110.50926 223.89626 107.49699 224.38298 104.52169 224.41089 101.60144"/>
<polyline points="224.06729 102.46967 223.77527 99.59849 223.07408 96.80757 221.99367 94.108154 220.56367 91.5093"/>
<polyline points="220.14473 90.730354 218.30426 88.272705 216.17949 85.9294 213.79665 83.70398 211.18048 81.59881"/>
<polyline points="211.44067 83.88665 208.76224 81.80571 205.87544 79.84907 202.80191 78.01723 199.5617 76.31002"/>
<polyline points="196.93298 73.81378 193.40532 72.37235 189.76591 71.04976 186.02837 69.844406 182.20511 68.75465"/>
<polyline points="186.85901 72.99411 183.09589 71.78677 179.24295 70.70193 175.31256 69.737915 171.31615 68.89307"/>
<polyline points="172.82263 70.60852 168.7937 69.803375 164.71141 69.119385 160.58582 68.5551 156.42636 68.109184"/>
<polyline points="158.32668 69.456566 154.14697 69.05788 149.9457 68.77973 145.73175 68.621216 141.51375 68.58159"/>
<polyline points="144.38782 68.25851 140.17258 68.25806 135.96436 68.374725 131.77148 68.60826 127.6024 68.95857"/>
<polyline points="129.04947 72.59433 124.89528 73.04698 120.7886 73.628784 116.74089 74.33988 112.76423 75.18054"/>
<polyline points="114.72055 72.4619 110.7613 73.32852 106.88243 74.31874 103.096596 75.4331 99.41742 76.67213"/>
<polyline points="96.47854 75.739075 92.96324 77.14747 89.58445 78.67738 86.35883 80.32899 83.3044 82.10208"/>
<polyline points="85.089165 86.62924 82.46759 88.639145 80.09825 90.77167 78.006836 93.02282 76.22031 95.38742"/>
<polyline points="74.17748 96.87679 72.98828 99.42686 72.180176 102.06815 71.782684 104.78944 71.825066 107.577354"/>
<polyline points="75.61978 105.65831 75.61721 108.41458 76.09101 111.221756 77.06812 114.060616 78.57266 116.90933"/>
<polyline points="81.27557 116.346344 83.00652 119.1553 85.3009 121.933105 88.17022 124.65024 91.618774 127.2751"/>
<polyline points="92.392845 125.94385 95.785675 128.50513 99.759 130.93079"/>
<polyline points="96.31899 127.819954 99.7514 130.30591 113.45208 136.70792"/>
<polyline points="117.49027 130.94066 115.191284 132.51859 112.01779 136.27838 111.24179 138.38675"/>
<polyline points="115.37354 129.01782 113.255684 130.74286 111.60946 132.66043 110.483345 134.73656 109.922325 136.93265"/>
<polyline points="114.36024 126.229 112.20172 127.990135 110.50236 129.93988 109.30955 132.04695 108.66775 134.2757"/>
<polyline points="103.56761 127.225525 103.68077 129.68814 104.395584 132.17834 105.73571 134.6542"/>
<polyline points="104.36564 123.047005 103.566956 125.38999 103.31536 127.82025 103.64531 130.30263 104.58525 132.79796"/>
<polyline points="97.833725 124.993004 99.17613 127.60203 101.12943 130.16809"/>
<polyline points="95.99685 126.66814 98.832405 129.22516 102.26696 131.66098"/>
<polyline points="94.54896 126.97188 97.988655 129.48984 102.00983 131.863"/>
<polyline points="101.91624 122.52422 101.5442 124.97452 101.73642 127.484795 102.52283 130.0191 103.926506 132.53772"/>
<polyline points="93.543045 127.77827 97.54416 130.24423 102.10763 132.54529 112.8074 136.51355"/>
<polyline points="119.57471 128.0045 116.86848 129.37689 112.71123 132.80553 111.362114 134.80002"/>
<polyline points="122.31204 130.32819 119.4108 131.48529 116.88799 132.90503 114.79799 134.55841"/>
<polyline points="126.50878 140.60883 133.81174 141.49051 141.31792 142.03658 148.94572 142.2366"/>
<polyline points="147.11592 143.31458 155.00653 143.2651 162.86838 142.86948 170.61903 142.1334 178.17923 141.06818"/>
<polyline points="179.88057 137.99902 178.4019 134.25134 176.41881 130.74629"/>
<polyline points="176.40382 129.48364 173.91046 126.31001 171.0343 123.42165 167.8299 120.83017 164.34993 118.542656"/>
<polyline points="161.19974 117.58842 157.35056 115.84387 153.36096 114.4095 149.27548 113.28238 145.13683 112.45826"/>
<polyline points="144.09479 115.63004 139.97046 115.11797 135.88724 114.91104 131.88776 115.001236 128.0145 115.379555"/>
<polyline points="125.81906 114.73673 122.21286 115.54797 118.83952 116.616 115.742966 117.92748 112.96794 119.46699"/>
<polyline points="113.46211 118.76424 110.95931 120.46935 108.85698 122.36833 107.200356 124.43798 106.03366 126.65155"/>
<polyline points="108.2085 121.81847 106.600716 123.91692 105.48445 126.15504 104.90112 128.50226 104.88849 130.92384"/>
<polyline points="98.06203 122.3607 98.55782 124.94957 99.643 127.54709 101.33761 130.11589"/>
<polyline points="95.25711 124.80339 97.38961 127.42655 100.12782 129.9678 103.469986 132.38802"/>
<polyline points="98.86327 120.751625 98.82464 123.289474 99.35398 125.86782 100.47771 128.45175 102.21522 131.00285"/>
<polyline points="96.075294 121.179085 96.75739 123.80571 98.026474 126.43245 99.900856 129.02307"/>
<polyline points="90.86473 122.94285 93.32848 125.610916 96.38474 128.19188 100.03055 130.64966"/>
<polyline points="102.31895 118.08345 101.2345 120.41871 100.66012 122.85552 100.63194 125.36449 101.18188 127.912285"/>
<polyline points="107.79981 120.04562 106.09103 122.13179 104.85934 124.36139 104.14622 126.70587 103.990074 129.13269"/>
<polyline points="109.087166 119.16472 107.12892 121.155556 105.6244 123.30461 104.616325 125.58535 104.14507 127.96732"/>
<polyline points="105.089165 117.49051 103.525856 119.672905 102.44003 121.98533 101.87121 124.4008 101.85589 126.88844"/>
<polyline points="105.82407 117.27133 104.13882 119.409424 102.921455 121.68478 102.21218 124.071106 102.04856 126.5383"/>
<polyline points="102.78097 115.81035 101.36795 118.07061 100.435234 120.44956 100.02073 122.92104 100.1593 125.455086"/>
<polyline points="99.77218 115.682556 98.7768 118.07553 98.28523 120.56304 98.33234 123.11751 98.949135 125.70771"/>
<polyline points="92.9611 116.64951 93.2248 119.29087 94.0438 121.9598 95.44208 124.62514 97.437225 127.25265"/>
<polyline points="87.56991 120.98025 89.89538 123.70075 92.80597 126.34919 96.30289 128.89154 100.37792 131.29239"/>
<polyline points="109.31554 118.304474 107.26251 120.264175 105.651924 122.38652 104.52665 124.64617 103.927536 127.01397"/>
<polyline points="106.471085 114.26872 104.450226 116.30512 102.85921 118.49384 101.73877 120.81256 101.12819 123.2354"/>
<polyline points="112.1266 113.94199 109.49344 115.64877 107.2315 117.544655 105.38359 119.61068 103.99229 121.82464"/>
<polyline points="109.069756 110.66531 106.53615 112.484146 104.37282 114.47743 102.620384 116.62782 101.31937 118.91498"/>
<polyline points="94.86464 110.16792 93.81191 112.610374 93.23242 115.146706 93.160065 117.754326 93.62604 120.40738"/>
<polyline points="89.94082 112.367294 89.83099 115.00356 90.24257 117.68879 91.203186 120.39659 92.73581 123.09749"/>
<polyline points="83.49156 124.38674 87.15421 127.06464 91.3847 129.62045 96.17057 132.02208 101.489716 134.23712"/>
<polyline points="80.959045 124.73153 84.77769 127.435265 89.160706 130.01675 94.09575 132.4447 99.561104 134.68762"/>
<polyline points="77.55836 130.3805 82.48724 133.0415 87.96111 135.54636 93.95829 137.86548 100.447945 139.96982"/>
<polyline points="76.830444 149.34561 84.19317 151.82875 92.04654 154.0778 100.348175 156.0664 109.04734 157.77026"/>
<polyline points="127.64337 138.92635 124.50396 139.59259"/>
<polyline points="132.15298 132.28397 128.53781 132.53876 125.160126 133.1326 122.07814 134.04276 119.34973 135.24341"/>
<polyline points="127.90259 129.12024 124.49011 129.7791 121.36374 130.74164 118.57869 131.98468 116.18989 133.48166"/>
<polyline points="120.90882 121.38688 117.81356 122.59482 115.05028 124.04779 112.66776 125.724815 110.71461 127.601654"/>
<polyline points="123.5428 114.638664 120.06252 115.608376 116.83895 116.825516 113.91611 118.27589 111.338806 119.94302"/>
<polyline points="127.31618 119.820946 123.7349 120.53175 120.39666 121.51912 117.34937 122.766914 114.641495 124.25657"/>
<polyline points="127.73308 111.43907 123.971664 112.11123 120.40669 113.0374 117.07914 114.206856 114.03098 115.60721"/>
<polyline points="115.85592 103.43778 112.50877 104.76093 109.41555 106.28275 106.61236 107.99378 104.1366 109.88281"/>
<polyline points="99.99145 105.135506 97.898415 107.25258 96.19054 109.50842 94.9043 111.88753 94.07586 114.3716"/>
<polyline points="87.85812 112.63528 88.05876 115.321976 88.78997 118.04359 90.076904 120.77322 91.939674 123.481026"/>
<polyline points="84.17407 116.15069 85.58277 118.92957 87.5556 121.688034 90.10653 124.395966 93.242325 127.02098"/>
<polyline points="82.39966 117.38389 84.28946 120.17949 86.74831 122.93454 89.78545 125.61857 93.40248 128.19913"/>
<polyline points="78.571915 125.87841 82.66438 128.59692 87.31682 131.1879 92.515564 133.62083 98.23778 135.86511"/>
<polyline points="78.64619 123.36138 82.19677 126.122765 86.314156 128.77792 90.9906 131.29614 96.20945 133.64609"/>
<polyline points="76.38664 125.67224 80.43609 128.43045 85.0464 131.0675 90.2059 133.55339 95.89389 135.85776"/>
<polyline points="77.98912 122.03016 81.25431 124.82092 85.087845 127.51861 89.485596 130.09274 94.4348 132.512"/>
<polyline points="84.15332 115.630165 85.43887 118.40764 87.28528 121.170715 89.70783 123.88974 92.71491 126.53265"/>
<polyline points="80.89749 115.25499 82.40272 118.067085 84.46532 120.859146 87.09934 123.60253 90.31212 126.26637"/>
<polyline points="76.99843 121.23245 80.10829 124.046196 83.786026 126.77538 88.02986 129.38994 92.82962 131.85875"/>
<polyline points="83.8836 112.633354 84.53291 115.38848 85.719696 118.16029 87.46564 120.92199 89.78701 123.64403"/>
<polyline points="90.09034 109.26402 89.459816 111.82711 89.31548 114.463715 89.688385 117.15116 90.60639 119.86368"/>
<polyline points="86.965355 107.34998 86.370155 109.943474 86.25063 112.6089 86.63725 115.32534 87.55771 118.068886"/>
<polyline points="82.183945 107.97481 82.118965 110.6782 82.5479 113.43205 83.49803 116.21446 84.99325 119.00077"/>
<polyline points="79.95963 109.34668 80.31619 112.11094 81.183174 114.90866 82.58516 117.716675 84.54258 120.50906"/>
<polyline points="76.096756 111.99132 77.22694 114.83745 78.890396 117.68676 81.10611 120.51421 83.88772 123.29236"/>
<polyline points="68.994736 120.00608 71.93973 122.93274 75.44478 125.79593 79.513824 128.5681 84.143684 131.22034"/>
<polyline points="71.705536 136.73865 77.42578 139.45572 83.685234 142.00089 90.45868 144.34567 97.71223 146.46237"/>
<polyline points="72.84603 149.30673 80.06562 151.90369 87.79349 154.27731 95.990906 156.40054 104.61069 158.24803"/>
<polyline points="140.1676 164.50578 150.09196 164.77148 160.03696 164.67719 169.92314 164.22415 179.67252 163.41847"/>
<polyline points="175.60638 164.79657 185.31804 163.7945 194.77718 162.45686 203.91646 160.80087 212.67511 158.84721"/>
<polyline points="193.71387 167.40111 203.26805 165.79968 212.45265 163.8873 221.21144 161.68701 229.49623 159.22437"/>
<polyline points="230.87315 140.61865 236.71544 137.79575 242.00531 134.83356 246.73566 131.75952 250.90627 128.59995"/>
<polyline points="247.46 127.74729 251.08798 124.57427 254.17372 121.360054 256.73212 118.12635 258.78186 114.89287"/>
<polyline points="256.7218 112.51671 258.02075 109.34623 258.86865 106.21552 259.2915 103.13734 259.3157 100.12256"/>
<polyline points="262.0748 103.241486 262.06305 100.21166 261.6842 97.25573 260.9646 94.38077 259.92993 91.59242"/>
<polyline points="261.61697 93.35222 260.46228 90.59304 259.02795 87.92637 257.33722 85.35495 255.41202 82.88066"/>
<polyline points="256.3869 87.34941 254.65677 84.807915 252.69344 82.36387 250.5176 80.018326 248.1486 77.77165"/>
<polyline points="248.29993 76.96902 245.69681 74.85176 242.94199 72.831894 240.05045 70.908195 237.03578 69.07919"/>
<polyline points="240.55571 68.77065 237.42966 67.02382 234.20842 65.36675 230.90202 63.797413 227.51959 62.313694"/>
<polyline points="226.68204 63.363976 223.2592 61.93099 219.77007 60.58171 216.22197 59.314087 212.62157 58.126053"/>
<polyline points="205.25803 63.660736 201.6309 62.448086 197.93895 61.32595 194.18971 60.29246 190.39005 59.3458"/>
<polyline points="183.05916 54.42401 179.16577 53.796967 175.25142 53.241535 171.31909 52.7565 167.37152 52.340843"/>
<polyline points="172.29858 54.7735 168.32951 54.308533 164.34395 53.91736 160.34485 53.5991 156.33495 53.352993"/>
<polyline points="150.8026 48.285553 146.8789 48.22857 142.95317 48.22947 139.0264 48.288177 135.09958 48.40476"/>
<polyline points="133.15207 51.623955 129.1619 51.846596 125.17718 52.135853 121.19988 52.492218 117.23204 52.916336"/>
<polyline points="113.18608 47.057602 109.34113 47.514664 105.50003 48.026245 101.66375 48.593304 97.83345 49.21688"/>
<polyline points="98.08329 49.047813 94.26112 49.72232 90.447235 50.455353 86.64323 51.24823 82.85097 52.102436"/>
<polyline points="87.328094 58.45426 83.560104 59.509464 79.834045 60.64466 76.155426 61.86171 72.53036 63.162544"/>
<polyline points="73.522446 67.8666 70.109634 69.41022 66.79588 71.05089 63.592594 72.79027 60.51225 74.62989"/>
<polyline points="65.38699 72.97838 62.301224 74.80609 59.354057 76.736115 56.560486 78.7695 53.936813 80.906906"/>
<polyline points="60.20366 83.668396 57.954998 85.95368 55.94468 88.344055 54.19536 90.837234 52.73092 93.42999"/>
<polyline points="62.596977 99.488 62.114815 102.25602 62.042564 105.09561 62.408123 107.99431 63.238518 110.93752"/>
<polyline points="68.089745 114.96936 70.08276 117.91482 72.61876 120.83685 75.71114 123.71036 79.36748 126.508255"/>
<polyline points="70.25743 133.53476 75.490814 136.31612 81.273766 138.94504 87.586624 141.3928 94.401 143.63103"/>
<polyline points="68.80815 135.21915 74.229706 138.018 80.2006 140.66043 86.70028 143.11789 93.69956 145.36215"/>
<polyline points="65.1987 150.0546 72.21347 152.8586 79.76558 155.45749 87.82256 157.82318 96.34346 159.92874"/>
<polyline points="140.34158 150.4769 149.09752 150.73398 157.88342 150.64735 166.62001 150.21803 175.22926 149.45209"/>
<polyline points="169.52304 139.99924 166.70041 136.69923 163.52084 133.76187 160.04826 131.19638"/>
<polyline points="158.68008 134.01157 154.95572 131.81525 151.06975 130.01147 147.08179 128.5956 143.04922 127.56033"/>
<polyline points="144.53802 123.732346 140.4721 123.02492 136.44861 122.66131 132.51746 122.630844 128.72821 122.92134"/>
<polyline points="136.33669 102.95991 132.21939 103.11059 128.1929 103.50305 124.289856 104.13188 120.54355 104.991005"/>
<polyline points="129.78464 98.772835 125.775246 99.30357 121.892105 100.0517 118.165375 101.01234 114.62639 102.17998"/>
<polyline points="110.28906 98.828865 107.09394 100.347565 104.15784 102.04274 101.51402 103.90645 99.197044 105.92903"/>
<polyline points="109.111404 99.83449 106.0263 101.427505 103.21595 103.194725 100.714455 105.12732 98.55709 107.21463"/>
<polyline points="86.31388 103.333725 85.22134 105.83718 84.56056 108.432045 84.36344 111.1016 84.66052 113.82638"/>
<polyline points="82.366066 105.59962 81.903145 108.24636 81.90799 110.960075 82.41002 113.72136 83.43611 116.508064"/>
<polyline points="72.44739 113.0056 73.949814 115.89768 75.98952 118.78124 78.58304 121.63125 81.741425 124.42055"/>
<polyline points="70.49057 115.37505 72.51958 118.295296 75.09621 121.187416 78.23283 124.025444 81.93556 126.7815"/>
<polyline points="67.85748 118.4636 70.5137 121.410805 73.72557 124.30796 77.50032 127.128365 81.83854 129.84372"/>
<polyline points="79.48746 103.28357 78.88168 105.924904 78.722916 108.63905 79.04082 111.408905 79.86313 114.21479"/>
<polyline points="85.709656 101.04658 84.38196 103.49934 83.46156 106.051254 82.98042 108.687805 82.96978 111.39188"/>
<polyline points="73.215485 100.885826 72.6008 103.56309 72.41274 106.31413 72.68033 109.12429 73.431244 111.97654"/>
<polyline points="67.54736 105.72097 67.89342 108.57518 68.71506 111.471405 70.037674 114.391396 71.883835 117.31448"/>
<polyline points="65.02028 103.34475 65.053856 106.1786 65.53842 109.06683 66.50075 111.99356 67.965576 114.94057"/>
<polyline points="79.20627 96.73831 77.76834 99.19875 76.70351 101.75857 76.04206 104.40665 75.81421 107.12973"/>
<polyline points="82.73787 95.20448 80.95211 97.54627 79.51506 99.99785 78.45709 102.54952 77.80892 105.189575"/>
<polyline points="84.186775 94.22264 82.229385 96.501465 80.60635 98.89475 79.34782 101.393684 78.48447 103.98747"/>
<polyline points="82.80963 91.186356 80.64073 93.396515 78.77612 95.72344 77.244385 98.160355 76.074905 100.69884"/>
<polyline points="75.25093 90.059875 73.27321 92.37358 71.59914 94.79591 70.25615 97.320656 69.2726 99.94005"/>
<polyline points="65.620056 90.549065 63.962135 93.01527 62.617657 95.58125 61.61355 98.24075 60.977448 100.985954"/>
<polyline points="40.91847 106.17891 41.37328 109.283745 42.26777 112.44193 43.628017 115.64017 45.478714 118.86317"/>
<polyline points="33.910057 111.024956 34.868874 114.279884 36.29174 117.577805 38.203796 120.90405 40.6285 124.24194"/>
<polyline points="30.997305 132.57782 34.629894 136.10876 38.83721 139.59848 43.63079 143.02307 49.016724 146.35678"/>
<polyline points="30.90168 158.07854 37.25865 161.7425 44.24624 165.26843 51.854927 168.62602 60.067173 171.78415"/>
<polyline points="21.600313 152.99582 27.02526 156.83586 33.08343 160.582 39.776527 164.2054 47.099167 167.67603"/>
<polyline points="21.571285 128.55977 24.319817 132.19484"/>
<polyline points="21.880287 126.51181"/>
<polyline points="21.894863 126.30685 24.386913 129.91121 27.417297 133.52094 31.00671 137.1164 35.17228 140.67581"/>
<polyline points="78.809044 88.55388 76.569214 90.75451 74.612366 93.06944 72.96535 95.49342 71.65602 98.019806"/>
<polyline points="77.82756 87.51235 75.532074 89.69496 73.50983 91.99165 71.78696 94.397766 70.39073 96.90735"/>
<polyline points="76.707535 86.21821 74.339035 88.37535 72.23146 90.64628 70.41008 93.02706 68.90136 95.51252"/>
<polyline points="74.6114 83.66974 72.09616 85.77116 69.817535 87.98543 67.79892 90.30991 66.06508 92.7409"/>
<polyline points="79.07131 85.708855 76.58885 87.80688 74.35927 90.02114 72.40753 92.34799 70.75988 94.78259"/>
<polyline points="84.56941 88.83402 82.131516 90.92851 79.96935 93.1443 78.11009 95.47617 76.58206 97.91748"/>
<polyline points="87.30086 90.96251 84.90888 93.06374 82.80818 95.28903 81.02734 97.631996 79.59599 100.08468"/>
<polyline points="90.736496 92.46782 88.28993 94.52873 86.14 96.71871 84.316284 99.03072 82.84941 101.45604"/>
<polyline points="87.96008 88.25313 85.339165 90.25099 82.98021 92.37504 80.91 94.62056 79.15665 96.98153"/>
<polyline points="96.917885 94.43922 94.27108 96.3745 91.91706 98.45083 89.88675 100.66064 88.21209 102.994576"/>
<polyline points="99.62244 90.38541 96.60448 92.11862 93.830475 93.99729 91.328285 96.01652 89.127235 98.17014"/>
<polyline points="105.645065 95.209946 102.55358 96.848465 99.71922 98.64837 97.17299 100.60295 94.947235 102.70397"/>
<polyline points="107.653175 92.66612 104.356285 94.16721 101.285645 95.83101 98.470085 97.65244 95.93996 99.62518"/>
<polyline points="105.86791 87.46984 102.45922 88.91842 99.24568 90.518776 96.252266 92.267914 93.50548 94.16193"/>
<polyline points="108.46146 87.88511 104.966896 89.25125 101.65977 90.77358 98.56501 92.449104 95.70912 94.27402"/>
<polyline points="113.11247 91.13201 109.53192 92.38277 106.1391 93.803154 102.96085 95.389366 100.02556 97.13666"/>
<polyline points="113.97924 94.021935 110.44214 95.28633 107.10705 96.72779 104.003 98.34143 101.16051 100.12126"/>
<polyline points="116.598495 88.22257 112.82712 89.28371 109.20896 90.51262 105.76802 91.90677 102.52975 93.46299"/>
<polyline points="117.90248 86.55476 114.061035 87.53974 110.3579 88.68964 106.81559 90.00244 103.45794 91.47568"/>
<polyline points="119.72962 92.23976 115.93228 93.222725 112.29424 94.38819 108.84213 95.73254 105.60406 97.2514"/>
<polyline points="122.97005 83.30008 118.95906 84.04973 115.05011 84.959564 111.262505 86.02844 107.61663 87.255"/>
<polyline points="106.91083 73.58611 103.11121 74.68316 99.41413 75.90306 95.83374 77.246346 92.38535 78.71337"/>
<polyline points="94.1441 76.054245 90.69538 77.52485 87.38958 79.11604 84.24378 80.82791 81.27643 82.66016"/>
<polyline points="85.25845 73.73442 81.91423 75.30878 78.70733 76.9946 75.65349 78.79248 72.769714 80.702644"/>
<polyline points="77.47407 72.17729 74.19609 73.82289 71.04869 75.573975 68.04653 77.431526 65.20549 79.3962"/>
<polyline points="65.84337 70.886856 62.640144 72.63038 59.558365 74.47365 56.61152 76.418076 53.814236 78.46481"/>
<polyline points="68.783966 69.13687 65.47025 70.7825 62.264843 72.52604 59.17997 74.369095 56.229004 76.31308"/>
<polyline points="74.98977 68.76541 71.596985 70.32299 68.30957 71.97963 65.13962 73.73686 62.100307 75.59604"/>
<polyline points="79.46145 63.96757 75.86227 65.30031 72.33566 66.72397 68.89043 68.24043 65.53622 69.85157"/>
<polyline points="85.406975 73.663536 82.0569 75.2329 78.84346 76.91369 75.78233 78.706505 72.89047 80.6116"/>
<polyline points="92.45072 72.4962 88.91921 73.89534 85.507805 75.40734 82.23096 77.033005 79.10434 78.77286"/>
<polyline points="91.90004 66.24272 88.21135 67.46359 84.60344 68.78373 81.086395 70.204636 77.67116 71.72778"/>
<polyline points="98.34561 69.55803 94.62852 70.75256 91.00519 72.05626 87.48763 73.47025 84.08887 74.99554"/>
<polyline points="100.83575 73.07241 97.14988 74.30621 93.57514 75.65843 90.12585 77.12972 86.81752 78.72052"/>
<polyline points="100.648476 64.53003 96.815544 65.54674 93.04692 66.66107 89.35124 67.8745 85.73791 69.18848"/>
<polyline points="104.24493 68.47525 100.41187 69.51665 96.658745 70.666824 92.996414 71.92688 89.436714 73.29793"/>
<polyline points="104.80582 67.19824 100.94771 68.19728 97.16241 69.30198 93.45991 70.513565 89.85114 71.83324"/>
<polyline points="106.25587 68.809616 102.39555 69.81409 98.61397 70.928925 94.92202 72.15515 91.33165 73.493835"/>
<polyline points="105.85589 65.44423 101.96508 66.38072 98.137535 67.41862 94.38213 68.559204 90.70856 69.8038"/>
<polyline points="104.39198 61.20705 100.49003 62.074566 96.63451 63.031956 92.83201 64.080696 89.089676 65.22232"/>
<polyline points="101.78729 53.250175 97.91115 53.975407 94.05451 54.76965 90.220375 55.634342 86.41209 56.571022"/>
<polyline points="97.10375 44.341564 93.35616 44.92078 89.606766 45.547813 85.855995 46.223766 82.10443 46.94987"/>
<polyline points="98.835236 42.397247 95.12484 42.919815 91.40979 43.486107 87.69018 44.09714 83.96615 44.75396"/>
<polyline points="103.570045 46.150497 99.77179 46.702126 95.97575 47.305824 92.18276 47.9627 88.393776 48.673935"/>
<polyline points="106.35428 50.634087 102.47837 51.24247 98.61415 51.913708 94.76368 52.649048 90.9292 53.449833"/>
<polyline points="110.49364 60.887447 106.53112 61.635426 102.60895 62.473545 98.73325 63.403095 94.91073 64.42547"/>
<polyline points="109.67975 62.832954 105.72827 63.63569 101.82502 64.53371 97.97721 65.52832 94.192665 66.620865"/>
<polyline points="110.57999 63.41006 106.62043 64.20616 102.71038 65.09932 98.8573 66.09079 95.069305 67.1819"/>
<polyline points="111.49736 65.42569 107.534874 66.24185 103.6287 67.16086 99.78735 68.18385 96.02012 69.31203"/>
<polyline points="112.122375 69.55199 108.17873 70.433105 104.307755 71.428665 100.5204 72.539566 96.82859 73.76667"/>
<polyline points="113.30564 69.16408 109.34135 70.00866 105.44597 70.96702 101.63017 72.04005 97.90546 73.22864"/>
<polyline points="113.406555 68.101974 109.43376 68.92466 105.525314 69.85818 101.691185 70.90347 97.94221 72.061554"/>
<polyline points="115.29937 65.69036 111.29256 66.426025 107.33793 67.266235 103.44393 68.21199 99.61971 69.2644"/>
<polyline points="115.96494 60.286163 111.95523 60.91736 107.979095 61.6379 104.042114 62.448906 100.15041 63.35163"/>
<polyline points="117.70939 63.24159 113.67641 63.883663 109.684204 64.62375 105.73976 65.46289 101.85063 66.40221"/>
<polyline points="117.666466 62.115654 113.63629 62.74129 109.643486 63.46171 105.694466 64.27796 101.796165 65.19122"/>
<polyline points="119.60322 71.138535 115.5604 71.850174 111.58217 72.68346 107.67988 73.63895 103.86571 74.71725"/>
<polyline points="118.75573 78.11073 114.778366 78.94565 110.895744 79.9224 107.12395 81.04076 103.480156 82.30034"/>
<polyline points="124.87786 83.72015 120.83151 84.40057 116.881226 85.24393 113.04634 86.24899 109.34726 87.41439"/>
<polyline points="126.979355 85.19539 122.90401 85.80362 118.92133 86.58108 115.051476 87.526276 111.31558 88.637566"/>
<polyline points="126.97049 84.178024 122.88761 84.77997 118.89389 85.54781 115.0087 86.48028 111.25242 87.575935"/>
<polyline points="127.631294 92.50533 123.608955 93.125725 119.70294 93.93979 115.938805 94.94439 112.34326 96.13592"/>
<polyline points="128.70467 91.50094 124.64768 92.066666 120.69733 92.82394 116.87825 93.76989 113.216125 94.90135"/>
<polyline points="130.7526 92.875984 126.66409 93.34839 122.675385 94.019104 118.81187 94.885056 115.099915 95.94282"/>
<polyline points="132.5845 100.06802 128.51947 100.44518 124.565315 101.04829 120.7528 101.872345 117.11371 102.911766"/>
<polyline points="137.03323 100.514626 132.88672 100.64068 128.82011 100.99983 124.86395 101.58742 121.04947 102.398315"/>
<polyline points="138.69641 102.66517 134.5399 102.67945 130.45535 102.93712 126.474785 103.43311 122.63088 104.16181"/>
<polyline points="134.71164 91.17913 130.54308 91.46311 126.447395 91.942856 122.44816 92.61583 118.56967 93.479294"/>
<polyline points="137.6063 93.02995 133.4094 93.16873 129.27318 93.51227 125.22231 94.05773 121.28199 94.8021"/>
<polyline points="123.832405 71.8614 119.73633 72.46236 115.698006 73.18857 111.72888 74.04043 107.84114 75.01836"/>
<polyline points="124.731705 63.328934 120.638214 63.81464 116.57688 64.39979 112.554375 65.085144 108.57783 65.871635"/>
<polyline points="122.6282 58.722725 118.580246 59.2001 114.55583 59.763203 110.55962 60.41295 106.596634 61.150368"/>
<polyline points="124.24846 61.71023 120.16768 62.18901 116.11577 62.762367 112.098625 63.43112 108.1226 64.19623"/>
<polyline points="127.766426 56.069904 123.720985 56.420376 119.689865 56.849457 115.67654 57.357857 111.68471 57.94645"/>
<polyline points="119.33344 45.02409 115.51687 45.37738 111.701035 45.78063 107.88644 46.234566 104.07368 46.740013"/>
<polyline points="102.79698 33.738632 99.34308 34.076744 95.87753 34.44261 92.39961 34.83675 88.90854 35.259773"/>
<polyline points="118.676094 41.19126 114.96295 41.503525 111.246506 41.857338 107.52668 42.25334 103.80339 42.692192"/>
<polyline points="121.111786 37.530087 117.51273 37.777573 113.90818 38.05941 110.29761 38.37607 106.68054 38.728035"/>
<polyline points="123.376274 47.955288 119.48347 48.292446 115.59471 48.686596 111.71111 49.138474 107.83389 49.648903"/>
<polyline points="129.64319 51.07918 125.67138 51.354424 121.70585 51.69477 117.74843 52.10081 113.80109 52.573284"/>
<polyline points="133.73553 53.052525 129.71796 53.273716 125.70699 53.56539 121.70504 53.92803 117.71456 54.362255"/>
<polyline points="134.15222 52.389534 130.14569 52.599964 126.144936 52.87908 122.1521 53.227367 118.16944 53.645397"/>
<polyline points="135.62038 59.070614 131.50879 59.284523 127.409096 59.586147 123.3257 59.975883 119.26321 60.4543"/>
<polyline points="132.92146 66.99278 128.75247 67.30415 124.61071 67.72746 120.50432 68.26303 116.44177 68.91133"/>
<polyline points="131.55704 73.02052 127.37886 73.39877 123.24299 73.90823 119.16093 74.548935 115.14479 75.32101"/>
<polyline points="137.13614 70.408356 132.9277 70.611404 128.74356 70.93809 124.5934 71.3884 120.487305 71.96245"/>
<polyline points="136.768 68.35937 132.57146 68.57059 128.3971 68.89864 124.25356 69.34364 120.14979 69.90584"/>
<polyline points="136.95364 67.94813 132.75864 68.153625 128.58487 68.474655 124.4408 68.91131 120.33511 69.46385"/>
<polyline points="146.0734 65.41037 141.87982 65.37753 137.68909 65.45247 133.50812 65.63498 129.34392 65.92503"/>
<polyline points="146.78632 60.846485 142.63962 60.816216 138.4937 60.879276 134.35349 61.035564 130.22397 61.28514"/>
<polyline points="145.16331 51.77591 141.15907 51.79945 137.15497 51.890083 133.1529 52.047882 129.15472 52.273067"/>
<polyline points="151.1994 62.532303 147.04031 62.39113 142.87636 62.348434 138.71313 62.40388 134.55618 62.557297"/>
<polyline points="147.9114 69.85468 143.68718 69.7454 139.46315 69.75867 135.24841 69.89401 131.05203 70.15111"/>
<polyline points="146.63654 74.009415 142.39122 73.90822 138.1499 73.94391 133.92392 74.115814 129.7247 74.42349"/>
<polyline points="145.6609 77.123146 141.406 77.030754 137.15895 77.08629 132.93292 77.2889 128.74121 77.637924"/>
<polyline points="144.34113 85.76471 140.0823 85.649796 135.84073 85.714714 131.63527 85.9578 127.4849 86.377495"/>
<polyline points="144.14275 88.45223 139.88805 88.320305 135.65332 88.3785 131.4593 88.62485 127.3269 89.057365"/>
<polyline points="145.10577 88.31278 140.84909 88.139656 136.6076 88.15635 132.40189 88.36091 128.25264 88.751366"/>
<polyline points="146.43845 88.467896 142.18134 88.234184 137.93301 88.191185 133.71405 88.33687 129.54517 88.6693"/>
<polyline points="147.17667 85.68588 142.9166 85.45328 138.66118 85.400665 134.4291 85.52637 130.23903 85.82877"/>
<polyline points="146.70149 83.31944 142.43999 83.1323 138.18466 83.11606 133.95255 83.2693 129.76086 83.59071"/>
<polyline points="149.96782 86.72529 145.71588 86.362305 141.45602 86.18352 137.20755 86.18712 132.98969 86.371376"/>
<polyline points="150.41907 94.13613 146.18704 93.63493 141.94214 93.34764 137.70901 93.2716 133.51202 93.4041"/>
<polyline points="145.41359 106.659225 141.22699 106.21754 137.06311 106.041794 132.95674 106.12672 128.94261 106.46655"/>
<polyline points="149.2932 111.33899 145.14182 110.55812 140.9791 110.06597 136.84361 109.85692 132.77347 109.92464"/>
<polyline points="149.9104 113.049484 145.77458 112.18816 141.62079 111.623634 137.48904 111.35001 133.41884 111.36072"/>
<polyline points="151.45866 110.12765 147.31717 109.23567 143.14513 108.62709 138.9801 108.29696 134.85892 108.239685"/>
<polyline points="151.00087 116.04482 146.8964 115.03449 142.76096 114.335205 138.6373 113.94075 134.56729 113.84401"/>
<polyline points="155.54652 114.141365 151.49881 112.87783 147.37674 111.91504 143.2214 111.24838 139.07275 110.87239"/>
<polyline points="152.01112 101.456924 147.82272 100.73097 143.6065 100.24982 139.39285 100.00991 135.2115 100.00745"/>
<polyline points="153.68726 95.59579 149.48666 94.90731 145.25267 94.43857 141.01105 94.18687 136.78702 94.1494"/>
<polyline points="152.85587 91.255005 148.63116 90.691154 144.38184 90.32938 140.13042 90.16741 135.89903 90.202995"/>
<polyline points="157.46579 92.15274 153.29549 91.36223 149.07481 90.77641 144.82709 90.39307 140.57492 90.20991"/>
<polyline points="156.74399 80.101906 152.53215 79.58222 148.29039 79.22092 144.03369 79.016594 139.77667 78.96799"/>
<polyline points="156.42169 73.37433 152.21492 72.97337 147.9867 72.70666 143.74802 72.573135 139.50958 72.57199"/>
<polyline points="153.62234 62.64884 149.46886 62.45005 145.30717 62.35 141.14296 62.348225 136.9818 62.444473"/>
<polyline points="158.35333 65.58747 154.19585 65.24193 150.02095 65.00414 145.83563 64.87337 141.6467 64.849"/>
<polyline points="159.97849 65.63851 155.83055 65.25206 151.66252 64.97336 147.48145 64.801575 143.29411 64.73605"/>
<polyline points="158.48547 73.53961 154.29362 73.07334 150.07487 72.74161 145.84033 72.54326 141.60078 72.4774"/>
<polyline points="162.48186 77.36737 158.32863 76.7057 154.13126 76.19119 149.90321 75.82243 145.65747 75.598145"/>
<polyline points="160.37308 83.02674 156.20583 82.31906 151.99089 81.77977 147.74529 81.40723 143.48543 81.19989"/>
<polyline points="163.07793 92.86643 159.01105 91.81046 154.86195 90.95927 150.65485 90.310814 146.41287 89.86296"/>
<polyline points="161.4917 101.19356 157.46242 99.97386 153.33855 98.99355 149.15062 98.250145 144.92796 97.74079"/>
<polyline points="156.90596 112.24203 152.87074 110.948746 148.75182 109.94656 144.58871 109.2314 140.41968 108.79844"/>
<polyline points="162.21408 113.237816 158.3437 111.586365 154.33696 110.22439 150.23463 109.149315 146.07576 108.357544"/>
<polyline points="160.81378 118.92907 156.9682 117.16073 152.98204 115.70922 148.90097 114.57147 144.76888 113.74294"/>
<polyline points="158.17961 123.90101 154.3038 122.133514 150.30281 120.71024 146.22672 119.62664 142.12378 118.87655"/>
<polyline points="161.15672 122.06677 157.36754 120.15813 153.42365 118.579865 149.3736 117.32905 145.26398 116.40107"/>
<polyline points="164.33609 114.05932 160.55835 112.25204 156.6211 110.734 152.56602 109.50347 148.43292 108.55735"/>
<polyline points="166.00966 96.43535 162.04895 95.14598 157.97867 94.072914 153.826 93.21427 149.61685 92.567894"/>
<polyline points="170.71468 98.99386 166.94092 97.41174 163.01868 96.04988 158.97787 94.907104 154.84656 93.981674"/>
<polyline points="170.3726 100.90391 166.61899 99.268715 162.71088 97.86115 158.67957 96.68016 154.55464 95.72397"/>
<polyline points="173.60286 101.509926 169.99399 99.70996 166.20595 98.134254 162.27103 96.78242 158.21954 95.65322"/>
<polyline points="176.25221 93.64028 172.583 92.02805 168.7583 90.61004 164.80446 89.385376 160.74602 88.35273"/>
<polyline points="173.59047 85.146645 169.6952 83.91534 165.69458 82.85292 161.60811 81.95785 157.4541 81.22846"/>
<polyline points="164.54337 66.63858 160.42444 66.1237 156.27641 65.71915 152.10695 65.42385 147.92334 65.236946"/>
<polyline points="162.4916 60.762268 158.39803 60.387596 154.287 60.1051 150.16347 59.914005 146.03221 59.813744"/>
<polyline points="164.68927 64.712906 160.581 64.22786 156.44664 63.846973 152.29297 63.56924 148.1264 63.393875"/>
<polyline points="168.5538 66.00273 164.47443 65.40343 160.36069 64.91168 156.22008 64.526306 152.05965 64.246315"/>
<polyline points="168.45648 57.91697 164.42827 57.466682 160.38095 57.09946 156.31853 56.814426 152.24472 56.610847"/>
<polyline points="169.83769 63.990524 165.77766 63.401928 161.6857 62.91436 157.56837 62.52668 153.43184 62.2379"/>
<polyline points="172.21823 72.60133 168.18742 71.76278 164.09872 71.05202 159.9633 70.46756 155.79166 70.00804"/>
<polyline points="175.27473 75.33249 171.31139 74.33975 167.2741 73.48243 163.17592 72.75894 159.02904 72.16777"/>
<polyline points="176.50285 81.23193 172.6286 80.030106 168.65437 78.98207 164.59727 78.08629 160.47314 77.341156"/>
<polyline points="174.5163 87.583565 170.68074 86.242836 166.726 85.07839 162.67346 84.08882 158.54321 83.272484"/>
<polyline points="177.45146 83.462585 173.63365 82.16078 169.70314 81.01924 165.67865 80.03649 161.5776 79.21095"/>
<polyline points="179.69913 76.22819 175.8325 75.091125 171.87746 74.09006 167.84795 73.22336 163.75691 72.489456"/>
<polyline points="183.97835 82.59273 180.3294 81.130394 176.54991 79.82002 172.65868 78.66032 168.67305 77.649826"/>
<polyline points="185.99254 78.14815 182.30406 76.788605 178.50243 75.56669 174.60341 74.48093 170.6216 73.529755"/>
<polyline points="186.19974 78.32251 182.52016 76.95186 178.726 75.719185 174.83319 74.62303 170.85643 73.66179"/>
<polyline points="187.59648 86.01827 184.15544 84.33139 180.55214 82.80191 176.80835 81.42914 172.94415 80.21197"/>
<polyline points="191.80399 81.615944 188.3693 79.99141 184.78654 78.50873 181.07457 77.166916 177.25072 75.964645"/>
<polyline points="193.02919 83.104645 189.68335 81.39461 186.17651 79.828674 182.52876 78.4061 178.75862 77.12575"/>
<polyline points="196.97513 84.82838 193.8355 82.96239 190.51178 81.23948 187.02579 79.65946 183.39754 78.221634"/>
<polyline points="188.5124 95.28039 185.44235 93.197 182.14418 91.290665 178.64713 89.56276 174.9783 88.013596"/>
<polyline points="186.82182 97.43939 183.75064 95.31614 180.44447 93.37796 176.9341 91.626526 173.24815 90.062325"/>
<polyline points="184.98656 106.39829 182.19171 103.9481 179.10675 101.70429 175.76929 99.671326 172.21478 97.85163"/>
<polyline points="182.95908 108.255196 180.10115 105.79476 176.95422 103.55119 173.55717 101.52886 169.9467 99.73015"/>
<polyline points="177.06372 112.45853 173.94867 110.05254 170.56424 107.89444 166.95226 105.98753 163.15216 104.33306"/>
<polyline points="178.9639 114.391235 176.06006 111.814545 172.8564 109.48251 169.39641 107.40022 165.72122 105.570305"/>
<polyline points="180.73529 112.459946 177.89075 109.89678 174.74437 107.56687 171.33823 105.47538 167.71207 103.62516"/>
<polyline points="168.10649 125.607796 164.75375 123.0937 161.14833 120.90374 157.34242 119.03981 153.38579 117.501015"/>
<polyline points="159.57704 138.36278 155.96028 135.90799 152.15352 133.86479"/>
<polyline points="150.53935 139.98422 146.63702 138.2887 142.68802 137.02725"/>
<polyline points="144.09998 142.06126 151.72778 142.1318 159.36162 141.8511 166.91626 141.22293 174.30898 140.25697"/>
<polyline points="175.56052 137.19275 173.34192 133.67471 170.6921 130.4566 167.67041 127.55506 164.33502 124.980835"/>
<polyline points="172.2178 133.60327 169.44687 130.45459 166.32062 127.63117 162.89748 125.14225 159.23375 122.99242"/>
<polyline points="162.78954 139.78528 159.38934 136.99973 155.74193 134.6196 151.91226 132.64494 147.9628 131.07173"/>
<polyline points="144.81055 142.2113 152.47595 142.25117 160.139 141.94061 167.715 141.28386 175.12181 140.2911"/>
<polyline points="178.20125 137.11055 176.36847 133.47174 174.06499 130.10117 171.34808 127.020035"/>
<polyline points="177.38525 129.27774 174.99445 126.06627 172.20963 123.13181 169.08493 120.48698 165.67276 118.13973"/>
<polyline points="179.33817 123.49165 176.8757 120.47237 174.04118 117.70976 170.88466 115.214355 167.45418 112.99272"/>
<polyline points="185.35751 121.13214 183.44922 117.996956 181.12314 115.07307 178.42632 112.37481 175.4046 109.91232"/>
<polyline points="185.19978 122.42296 183.36488 119.23318 181.10194 116.25457 178.45859 113.50253 175.48145 110.98806"/>
<polyline points="190.93127 114.54704 189.1865 111.55367 187.03424 108.739235 184.51688 106.116554 181.67552 103.695015"/>
<polyline points="193.87064 100.50994 191.38771 98.05786 188.60733 95.77606 185.56306 93.66919 182.28665 91.74013"/>
<polyline points="199.46696 88.301476 196.59238 86.24126 193.49983 84.32636 190.21399 82.55769 186.75766 80.935326"/>
<polyline points="199.31241 87.52417 196.39099 85.49927 193.25829 83.61882 189.93831 81.88347 186.45331 80.29315"/>
<polyline points="202.57822 78.56164 199.35419 76.8369 195.97847 75.23735 192.46835 73.76204 188.83975 72.40964"/>
<polyline points="204.81761 67.7043 201.27567 66.35478 197.64795 65.10551 193.94434 63.954662 190.17387 62.900406"/>
<polyline points="182.56996 54.713924 178.67075 54.087723 174.75009 53.53395 170.81108 53.05142 166.85652 52.63908"/>
<polyline points="174.29175 50.202015 170.39929 49.783524 166.49684 49.42661 162.58597 49.130493 158.6681 48.894524"/>
<polyline points="173.39622 45.980984 169.58325 45.638733 165.76582 45.347885 161.94455 45.107822 158.12001 44.918037"/>
<polyline points="174.60847 47.168613 170.77426 46.79384 166.93408 46.47316 163.08879 46.205933 159.23921 45.991585"/>
<polyline points="170.98354 34.041046 167.53134 33.85887 164.08258 33.704517 160.63654 33.57773 157.19254 33.478317"/>
<polyline points="179.40414 48.358345 175.56729 47.90323 171.7222 47.50476 167.87003 47.162098 164.01189 46.87454"/>
<polyline points="190.60875 47.26435 186.84096 46.699326 183.06602 46.18751 179.28502 45.72792 175.4988 45.319633"/>
<polyline points="193.06223 38.954247 189.48064 38.532753 185.90395 38.14715 182.33182 37.796753 178.76389 37.48098"/>
<polyline points="190.47748 29.381449 187.2266 29.124561 183.98518 28.888498 180.7524 28.672928 177.5275 28.477589"/>
<polyline points="195.2756 38.63871 191.707 38.205933 188.14407 37.80838 184.58646 37.44538 181.03377 37.11631"/>
<polyline points="196.34837 50.847923 192.56912 50.134197 188.77473 49.4815 184.9672 48.88854 181.14825 48.35414"/>
<polyline points="201.05663 44.142357 197.37852 43.546646 193.69989 42.996643 190.02112 42.491333 186.3425 42.029774"/>
<polyline points="203.27954 44.957283 199.59543 44.32289 195.90965 43.735756 192.22278 43.194794 188.5353 42.698967"/>
<polyline points="204.35692 42.428417 200.71875 41.845688 197.08347 41.304996 193.4512 40.80538 189.82195 40.34597"/>
<polyline points="216.71729 37.410774 213.20723 36.86245 209.7097 36.346535 206.22415 35.862206 202.75003 35.40869"/>
<polyline points="224.33029 50.142174 220.67462 49.19345 217.00932 48.301056 213.33614 47.46337 209.65654 46.67888"/>
<polyline points="227.12383 47.48703 223.47517 46.60291 219.8252 45.76941 216.1749 44.98504 212.52509 44.248398"/>
<polyline points="221.42867 61.06512 217.90404 59.76443 214.3248 58.543976 210.69711 57.401764 207.02655 56.335815"/>
<polyline points="205.40273 69.229965 201.91212 67.81624 198.32655 66.50602 194.65692 65.29753 190.91313 64.18897"/>
<polyline points="204.89583 82.3704 201.91711 80.45281 198.7541 78.664856 195.42711 77.006325 191.95485 75.47649"/>
<polyline points="204.3481 83.243614 201.39613 81.29982 198.2541 79.48757 194.94301 77.80684 191.48216 76.256996"/>
<polyline points="206.83586 81.20108 203.85802 79.29907 200.70145 77.522934 197.38567 75.87228 193.92862 74.34627"/>
<polyline points="200.39664 89.87389 197.6497 87.72949 194.66905 85.730865 191.48059 83.87951 188.10837 82.17595"/>
<polyline points="202.27792 95.21255 199.97205 92.80792 197.37889 90.5488 194.52843 88.4391 191.4488 86.48131"/>
<polyline points="208.73032 85.473335 206.06021 83.366615 203.17279 81.38886 200.09087 79.54089 196.83557 77.82277"/>
<polyline points="213.85437 84.36569 211.28471 82.2327 208.499 80.22173 205.51915 78.33355 202.3656 76.568184"/>
<polyline points="215.4072 85.587685 212.97397 83.385376 210.31154 81.30406 207.44281 79.34495 204.38904 77.508446"/>
<polyline points="207.9394 94.184555 205.86797 91.73076 203.50087 89.409904 200.86726 87.22627 197.99458 85.18272"/>
<polyline points="209.87215 97.5186 208.21068 94.90611 206.2147 92.41912 203.91525 90.06413 201.3419 87.84583"/>
<polyline points="201.83379 101.874756 200.0331 99.20056 197.88246 96.66986 195.4161 94.29039 192.66673 92.06773"/>
<polyline points="202.34221 108.42333 201.25351 105.48573 199.74413 102.67469 197.85068 100.00348 195.60916 97.48236"/>
<polyline points="203.36337 112.28507 202.89534 109.210846 201.95926 106.23953 200.59117 103.388916 198.8276 100.67327"/>
<polyline points="208.24641 109.43573 207.90501 106.42723 207.10658 103.51069 205.88513 100.702354 204.2751 98.01539"/>
<polyline points="212.96654 104.88878 212.3779 101.99173 211.36813 99.190605 209.96992 96.4981 208.21579 93.92436"/>
<polyline points="215.45378 98.66951 214.23732 95.95927 212.66127 93.35905 210.75647 90.87681 208.55261 88.518616"/>
<polyline points="217.92403 91.59218 216.08315 89.12239 213.95198 86.76933 211.5574 84.53687 208.92488 82.427605"/>
<polyline points="223.03673 76.015 220.1486 74.11702 217.10762 72.32549 213.92949 70.63937 210.62857 69.05731"/>
<polyline points="222.71033 72.01137 219.601 70.27748 216.36934 68.64444 213.0282 67.11065 209.5893 65.67438"/>
<polyline points="232.17406 48.57442 228.52902 47.62478 224.88165 46.727497 221.23314 45.88101 217.58447 45.083794"/>
<polyline points="238.72185 52.64312 235.10263 51.518486 231.47113 50.45378 227.82956 49.447113 224.17993 48.496677"/>
<polyline points="244.21527 60.248814 240.7523 58.813995 237.24721 57.45341 233.70515 56.164803 230.13074 54.946"/>
<polyline points="244.83865 62.525867 241.45076 60.99982 238.00903 59.552116 234.51971 58.180504 230.98845 56.882748"/>
<polyline points="239.1552 72.33183 236.21791 70.451584 233.15906 68.66646 229.99104 66.97478 226.72519 65.3747"/>
<polyline points="237.35403 73.269516 234.46251 71.36365 231.44131 69.55463 228.30368 67.84091 225.06161 66.220764"/>
<polyline points="241.11569 77.08148 238.49872 74.99922 235.72351 73.0164 232.80566 71.13201 229.75945 69.344696"/>
<polyline points="242.76125 78.98138 240.29382 76.81456 237.65323 74.74791 234.85616 72.78075 231.918 70.91204"/>
<polyline points="247.11258 70.05771 244.06746 68.2215 240.92258 66.47542 237.6884 64.81744 234.37445 63.24546"/>
<polyline points="253.21191 65.22711 249.92357 63.552578 246.57193 61.95974 243.16415 60.446255 239.70676 59.0098"/>
<polyline points="253.21626 56.785492 249.65121 55.4371 246.06602 54.155163 242.46394 52.937477 238.84784 51.781925"/>
<polyline points="247.21404 40.162235 243.62416 39.39704 240.05478 38.66782 236.50531 37.97342 232.97516 37.31275"/>
<polyline points="252.2773 46.80597 248.61378 45.814857 244.96178 44.87123 241.3216 43.97348 237.69345 43.12008"/>
<polyline points="263.77997 56.71315 260.17426 55.325325 256.55646 54.00279 252.92928 52.74325 249.29507 51.544514"/>
<polyline points="267.4622 51.005997 263.75415 49.81545 260.0561 48.679207 256.3687 47.59531 252.69272 46.56189"/>
<polyline points="270.0689 60.301773 266.52066 58.755398 262.95013 57.280327 259.3612 55.874058 255.75722 54.534214"/>
<polyline points="257.6278 69.99855 254.56183 68.11503 251.40596 66.31976 248.16986 64.61051 244.86223 62.985016"/>
<polyline points="254.83188 77.670425 252.27342 75.495514 249.5643 73.41725 246.71925 71.43435 243.75189 69.54526"/>
<polyline points="249.87071 83.37627 247.78653 81.00522 245.49686 78.73357 243.02065 76.56151 240.37555 74.48868"/>
<polyline points="228.88382 86.637245 226.90045 84.2642 224.66844 81.99904 222.21071 79.84364 219.5488 77.79904"/>
<polyline points="228.02087 87.95719 226.14203 85.540306 224.00174 83.23136 221.62395 81.032776 219.03104 78.946"/>
<polyline points="223.25517 93.13475 221.76497 90.56156 219.9633 88.095924 217.8775 85.742714 215.53357 83.50546"/>
<polyline points="224.23979 99.864 223.59227 97.0632 222.5625 94.35231 221.18018 91.740585 219.47429 89.23534"/>
<polyline points="233.39102 90.752396 231.90384 88.198456 230.12776 85.745674 228.08784 83.39766 225.80774 81.156906"/>
<polyline points="236.93835 95.36541 236.03604 92.64214 234.8003 90.009705 233.25784 87.47396 231.4344 85.039345"/>
<polyline points="240.72595 94.878494 239.80617 92.15386 238.56111 89.51953 237.0169 86.98083 235.19861 84.54178"/>
<polyline points="238.84111 106.4398 239.4783 103.44767 239.67929 100.507805 239.47136 97.63281 238.88214 94.83327"/>
<polyline points="237.5136 108.44201 238.4516 105.42565 238.93504 102.451866 238.99051 99.53482 238.64552 96.68652"/>
<polyline points="248.48042 104.80583 248.85999 101.80412 248.83267 98.864075 248.42549 95.99573 247.6654 93.20737"/>
<polyline points="253.70808 100.76768 253.50839 97.83235 252.94673 94.97317 252.04953 92.19721 250.84251 89.51004"/>
<polyline points="260.23486 87.75447 258.51788 85.18463 256.56992 82.71203 254.41154 80.337555 252.06187 78.06151"/>
<polyline points="258.8258 78.84831 256.34036 76.61154 253.69946 74.47163 250.9182 72.42735 248.0105 70.47722"/>
<polyline points="261.188 78.00501 258.62512 75.79184 255.91672 73.67477 253.07712 71.65234 250.11942 69.7229"/>
<polyline points="268.54132 70.764145 265.45355 68.80989 262.28296 66.94373 259.0387 65.16326 255.72906 63.46602"/>
<polyline points="271.93665 66.26092 268.59637 64.474686 265.20508 62.769714 261.7692 61.1434 258.2945 59.593166"/>
<polyline points="272.0766 59.151306 268.48212 57.643127 264.8723 56.204025 261.25043 54.83153 257.61932 53.523266"/>
<polyline points="275.41638 72.12425"/>
<polyline points="273.93182 75.08244 271.0549 72.94111 268.0724 70.89267 264.99548 68.934845 261.83435 67.06534"/>
<polyline points="275.29773 86.00087 273.2379 83.443474 270.9889 80.98508 268.5683 78.62513 265.9925 76.36262"/>
<polyline points="271.36978 89.960945 269.73495 87.27807 267.8694 84.6926 265.7935 82.20526 263.5263 79.81622"/>
<polyline points="270.7954 96.302086 269.8202 93.420204 268.55707 90.62982 267.02954 87.933876 265.26 85.33437"/>
<polyline points="275.37775 94.26499 274.10168 91.42892 272.56537 88.6883 270.7909 86.0449 268.79907 83.49968"/>
<polyline points="262.35022 105.928535 262.66705 102.83851 262.5949 99.815384 262.16037 96.86751 261.38965 94.001686"/>
<polyline points="251.50262 106.74214 252.11496 103.69079 252.30984 100.69584 252.11398 97.76792 251.5543 94.9159"/>
<polyline points="236.84904 111.19919 238.22182 108.15602 239.11815 105.14087 239.56319 102.16982 239.58371 99.25677"/>
<polyline points="227.39905 107.22524 227.97049 104.25041 228.08696 101.32792 227.77664 98.47259 227.06856 95.69684"/>
<polyline points="224.13133 109.09385 224.90231 106.09646 225.20006 103.14388 225.05238 100.252846 224.48848 97.437485"/>
<polyline points="215.95143 105.50941 215.66774 102.584526 214.95044 99.743416 213.83128 96.99971 212.34204 94.36442"/>
<polyline points="212.97478 109.054504 213.02199 106.05045 212.60358 103.11998 211.75136 100.27985 210.49802 97.543846"/>
<polyline points="210.65579 109.95555 210.63882 106.93161 210.15201 103.98509 209.22794 101.13335 207.90004 98.39063"/>
<polyline points="221.898 113.04258 223.30428 110.01557 224.20406 107.008064 224.62224 104.04041 224.58627 101.13021"/>
<polyline points="230.34122 112.34206 231.8576 109.31289 232.88069 106.30337 233.43498 103.33171 233.54695 100.413704"/>
<polyline points="224.95125 117.451385 227.32512 114.441666 229.16946 111.41448 230.50322 108.39272 231.3489 105.39672"/>
<polyline points="220.38579 120.694756 223.32936 117.736046 225.72685 114.73137 227.59172 111.70671 228.94234 108.68556"/>
<polyline points="226.3854 124.2302 230.02881 121.29498 233.12543 118.29369 235.68445 115.2519 237.72043 112.19306"/>
<polyline points="248.64865 118.49392 250.96948 115.32866 252.788 112.167175 254.12617 109.027016 255.0083 105.923615"/>
<polyline points="255.60335 116.98929 257.533 113.775955 258.98047 110.58337 259.96985 107.426796 260.5268 104.31944"/>
<polyline points="267.64056 113.91065 268.8216 110.64352 269.5643 107.42461 269.89508 104.26518 269.84058 101.17475"/>
<polyline points="268.51486 115.20143 269.82883 111.907776 270.69733 108.659386 271.1466 105.46794 271.2035 102.343346"/>
<polyline points="270.896 130.56033 273.96414 127.06641 276.50342 123.56985"/>
<polyline points="275.1776 130.65533"/>
<polyline points="269.2851 140.98611 273.57672 137.44153"/>
<polyline points="262.41412 134.06119 266.23898 130.66006 269.51138 127.22549 272.2485 123.778244 274.47086 120.33718"/>
<polyline points="249.88809 135.16197 254.35287 131.95444 258.25647 128.67967 261.60913 125.36121 264.4259 122.02079"/>
<polyline points="245.58762 123.45284 248.69157 120.303734 251.26645 117.129585 253.3299 113.95091 254.90279 110.78609"/>
<polyline points="241.68423 124.21057 245.00653 121.10657 247.79312 117.96615 250.05959 114.811066 251.8252 111.660934"/>
<polyline points="233.01733 126.89216 236.9644 123.9099 240.36377 120.85887 243.2243 117.76375 245.56004 114.64728"/>
<polyline points="229.5461 132.90424 234.4609 130.03648 238.82419 127.060005 242.6357 124.00148 245.90154 120.886116"/>
<polyline points="250.77713 138.55875 255.60025 135.33652 259.85474 132.03577 263.54883 128.68088 266.69562 125.29438"/>
<polyline points="251.44435 141.02928 256.5159 137.7948 261.01367 134.47409 264.9445 131.09201 268.32037 127.67172"/>
<polyline points="264.99118 165.60777 271.85535 162.03088"/>
<polyline points="259.78992 166.17412 266.93475 162.71516 273.45438 159.1079"/>
<polyline points="249.1272 160.56792 256.23553 157.37474 262.74603 154.02242 268.6507 150.53996 273.94867 146.95532"/>
<polyline points="251.88219 187.66295 261.09924 184.32916"/>
<polyline points="238.91614 181.65683 248.17165 178.70094 256.8421 175.49724 264.89914 172.07748 272.3233 168.4736"/>
<polyline points="210.55249 128.75932 215.12175 126.08855 219.14534 123.288025 222.61656 120.38857 225.53671 117.41952"/>
<polyline points="212.52174 119.06837 214.65198 116.03315 216.23239 112.97882 217.28192 109.93255 217.82419 106.91842"/>
<polyline points="210.2417 121.10846 212.69884 118.09448 214.59602 115.043175 215.94861 111.983864 216.77751 108.94286"/>
<polyline points="209.53859 121.807236 212.1235 118.80571 214.14583 115.75973 215.61935 112.69934 216.56386 109.651566"/>
<polyline points="207.37405 120.67369 209.30687 117.5819 210.67917 114.47561 211.51082 111.38426 211.82692 108.3339"/>
<polyline points="208.08409 122.943794 210.84827 119.9607 213.04579 116.922264 214.68814 113.859726 215.7933 110.801384"/>
<polyline points="206.39922 124.7759 209.57144 121.85504 212.17474 118.85609 214.2154 115.81182 215.707 112.75231"/>
<polyline points="207.50862 127.542694 211.69168 124.82028 215.32126 121.97679 218.39278 119.04445 220.90997 116.05369"/>
<polyline points="204.12968 125.7418 207.31561 122.81538 209.92857 119.80566 211.97357 116.74687 213.46344 113.67045"/>
<polyline points="201.38435 122.28661 202.56857 119.04729 203.18878 115.83024 203.27168 112.66608 202.84853 109.58105"/>
<polyline points="196.68771 115.41621 195.75644 112.28505 194.36353 109.28853 192.54887 106.44438 190.35237 103.766426"/>
<polyline points="197.83472 117.94678 197.41586 114.72254 196.49939 111.608765 195.12363 108.62717 193.32799 105.79513"/>
<polyline points="194.05128 119.96259 193.28848 116.694275 192.03568 113.56132 190.3341 110.58497 188.22578 107.781944"/>
<polyline points="189.41867 121.45929 188.09299 118.20205 186.30478 115.119675 184.09903 112.23083 181.52052 109.54956"/>
<polyline points="185.98914 124.61023 184.43639 121.297455 182.42613 118.18466 180.00626 115.290344 177.22424 112.628075"/>
<polyline points="186.28424 124.60356 184.77512 121.28318 182.80524 118.159775 180.4223 115.252205 177.67363 112.57434"/>
<polyline points="186.60867 125.32608 185.21365 121.9654 183.34712 118.79629 181.05663 115.83879 178.38965 113.10785"/>
<polyline points="189.27325 125.26478 188.32356 121.85397 186.87343 118.60405 184.96783 115.53829 182.65262 112.674644"/>
<polyline points="191.85555 123.381355 191.15001 120.01111 189.93752 116.78065 188.26062 113.71363 186.16298 110.828705"/>
<polyline points="191.77568 124.20683 191.16467 120.8083 190.03848 117.54523 188.43948 114.44241 186.41129 111.51944"/>
<polyline points="187.63417 127.27438 186.60817 123.80911 185.07904 120.51567 183.09334 117.41794 180.69841 114.53422"/>
<polyline points="175.58624 132.57379 173.14305 129.28816 170.30444 126.29837 167.12718 123.61733 163.66629 121.25288"/>
<polyline points="169.83281 136.93103 166.93945 133.76575 163.70401 130.95218 160.18796 128.49829"/>
<polyline points="164.17348 140.33727"/>
<polyline points="163.4562 142.28378 171.09492 141.50423 178.53429 140.39587 185.70021 138.97586 192.5257 137.26573"/>
<polyline points="192.00786 134.6059"/>
<polyline points="192.0274 133.88301"/>
<polyline points="190.98572 132.91785 191.85481 129.33688 192.12073 125.80118 191.81389 122.35046 190.9709 119.01825"/>
<polyline points="196.56776 125.24708 197.27509 121.871216 197.4138 118.54678 197.01547 115.30573 196.1159 112.17508"/>
<polyline points="201.52354 122.47854 202.79813 119.24665 203.5066 116.031975 203.67477 112.86543 203.33322 109.77373"/>
<polyline points="202.80891 125.01693 205.36935 121.96105 207.35039 118.85172 208.7639 115.72342 209.62897 112.60711"/>
<polyline points="199.21544 125.97313 201.03287 122.74441 202.26381 119.49982 202.9279 116.2748 203.05138 113.10049"/>
<polyline points="198.18524 127.77632 200.47112 124.60313 202.1636 121.3847 203.27626 118.15887 203.83038 114.95942"/>
<polyline points="196.99554 128.58046"/>
<polyline points="197.29626 128.73148 199.72052 125.56947 201.5487 122.35247"/>
<polyline points="196.96928 129.35095"/>
<polyline points="196.81047 129.26614 199.33102 126.11614 201.25444 122.90445 202.59052 119.67068"/>
<polyline points="196.57625 129.4128 199.04945 126.24778"/>
<polyline points="195.82605 129.81625"/>
<polyline points="195.89581 130.25067 198.62253 127.13337 200.7514 123.94013"/>
<polyline points="194.71965 129.13545 195.97119 125.72338 196.62758 122.32875 196.71457 118.9891 196.26425 115.736626"/>
<polyline points="195.71309 130.37997 198.40521 127.25067 200.49852 124.04712"/>
<polyline points="195.77765 130.43234 198.61195 127.34071 200.84956 124.16646"/>
<polyline points="196.15952 130.84106 200.1021 128.07732 203.47736 125.17266"/>
<polyline points="195.73376 130.59225 198.75916 127.551476 201.19107 124.416794"/>
<polyline points="195.66904 130.799"/>
<polyline points="195.23523 131.42993 199.32338 128.71019"/>
<polyline points="194.51384 131.89545 198.77242 129.23112"/>
<polyline points="194.12767 131.33319 196.19841 128.02483 197.66125 124.67888"/>
<polyline points="195.63602 133.31934 201.06602 131.0186 205.99211 128.51724 210.38641 125.84899 214.23146 123.04742"/>
<polyline points="200.91931 136.21683 207.04779 134.00058 212.68901 131.57806 217.81392 128.97942 222.40276 126.2349"/>
<polyline points="193.63483 133.49927 198.9962 131.20401 203.85417 128.70355 208.17935 126.03263 211.95319 123.2259"/>
<polyline points="193.20885 132.5891 195.59096 129.32687 197.36292 126.00495 198.53458 122.666695"/>
<polyline points="193.23228 132.82422 198.04883 130.35349 202.33536 127.69465"/>
<polyline points="189.85878 133.58636 190.42839 129.94705"/>
<polyline points="186.93762 134.1128 186.63336 130.40143 185.76176 126.82599 184.36655 123.42013 182.49474 120.21075"/>
<polyline points="181.64496 134.4697"/>
<polyline points="180.21503 134.6396 178.53984 131.04207 176.38629 127.69007 173.80913 124.60547 170.863 121.80384"/>
<polyline points="178.30162 135.7857"/>
<polyline points="179.75668 136.07858 178.10962 132.42827 175.97774 129.02692 173.41655 125.89731 170.48157 123.0557"/>
<polyline points="182.86743 136.9058 194.58414 132.89566"/>
<polyline points="189.62112 136.04477 190.9524 132.44534 191.66179 128.85785 191.77348 125.32694"/>
<polyline points="184.85028 134.96762 184.12366 131.23584"/>
<polyline points="184.56746 136.66583 183.9852 132.87213 182.84128 129.24278"/>
<polyline points="183.7146 137.31046"/>
<polyline points="186.47607 136.7137 186.46971 132.92589"/>
<polyline points="188.08061 137.3811"/>
<polyline points="188.17905 137.6737 189.21008 133.96985 189.6179 130.3017 189.43083 126.71433"/>
<polyline points="163.6049 143.81693 171.50201 143.07599 179.20605 142.00781 186.644 140.62848 193.74944 138.9583"/>
<polyline points="188.63853 170.4525 198.53575 169.02727 208.09709 167.2752 217.2615 165.21779 225.9757 162.87929"/>
<polyline points="184.8855 175.70587 195.23846 174.41763 205.2825 172.78506 214.95212 170.8283 224.18922 168.57066"/>
<polyline points="167.181 173.4192 177.63374 172.73204 187.89886 171.68298 197.90222 170.28554 207.57515 168.55734"/>
<polyline points="160.45906 144.40887 168.46791 143.80792 176.31522 142.87497 183.92593 141.62398 191.23099 140.07349"/>
<polyline points="159.29466 145.19992 167.41997 144.65991 175.39684 143.78662 183.14984 142.59299 190.60919 141.09656"/>
<polyline points="156.96043 142.92595 164.75322 142.43832 172.41388 141.61208 179.86395 140.45987 187.03062 138.99936"/>
<polyline points="149.60062 144.96103 157.74045 144.82129 165.82582 144.33902 173.77664 143.52135 181.51637 142.38046"/>
<polyline points="149.39339 166.31534 159.45428 166.2481 169.46169 165.81943 179.3372 165.03508 189.00531 163.90541"/>
<polyline points="155.58948 184.00014 166.85526 183.72876 178.01846 183.0655 188.99782 182.01894 199.7159 180.60246"/>
<polyline points="140.76172 147.99973 149.26523 148.23885 157.79788 148.13506 166.27968 147.6896 174.63208 146.90887"/>
<polyline points=""/>
<polyline points=""/>
<polyline points=""/>
<polyline points=""/>
<polyline points=""/>
<polyline points=""/>
<polyline points=""/>
<polyline points=""/>
<polyline points=""/>
<polyline points=""/>
<polyline points=""/>
<polyline points=""/>
<polyline points=""/>
<polyline points=""/>
<polyline points=""/>
<polyline points=""/>
<polyline points=""/>
<polyline points=""/>
<polyline points=""/>
<polyline points=""/>
<polyline points=""/>
<polyline points=""/>
<polyline points=""/>
<polyline points=""/>
<polyline points=""/>
<polyline points=""/>
<polyline points=""/>
<polyline points=""/>
<polyline points=""/>
<polyline points=""/>
<polyline points=""/>
<polyline points=""/>
<polyline points=""/>
<polyline points=""/>
<polyline points=""/>
<polyline points=""/>
<polyline points=""/>
<polyline points=""/>
<polyline points=""/>
<polyline points=""/>
<polyline points=""/>
<polyline points=""/>
<polyline points=""/>
<polyline points=""/>
<polyline points=""/>
<polyline points=""/>
<polyline points=""/>
<polyline points=""/>
<polyline points=""/>
<polyline points=""/>
<polyline points=""/>
<polyline points=""/>
<polyline points=""/>
<polyline points=""/>
<polyline points=""/>
<polyline points=""/>
<polyline points=""/>
<polyline points=""/>
<polyline points=""/>
<polyline points=""/>
<polyline points=""/>
<polyline points=""/>
<polyline points=""/>
<polyline points=""/>
<polyline points=""/>
<polyline points=""/>
<polyline points=""/>
<polyline points=""/>
<polyline points=""/>
<polyline points=""/>
<polyline points=""/>
<polyline points=""/>
<polyline points=""/>
<polyline points=""/>
<polyline points=""/>
<polyline points=""/>
<polyline points=""/>
<polyline points=""/>
<polyline points=""/>
<polyline points=""/>
<polyline points=""/>
<polyline points=""/>
<polyline points=""/>
<polyline points=""/>
<polyline points=""/>
<polyline points=""/>
<polyline points=""/>
<polyline points=""/>
<polyline points=""/>
<polyline points=""/>
<polyline points=""/>
<polyline points=""/>
<polyline points=""/>
<polyline points=""/>
<polyline points=""/>
<polyline points=""/>
<polyline points=""/>
<polyline points=""/>
<polyline points=""/>
<polyline points=""/>
<polyline points=""/>
<polyline points=""/>
<polyline points=""/>
<polyline points=""/>
<polyline points=""/>
<polyline points=""/>
<polyline points=""/>
<polyline points=""/>
<polyline points=""/>
<polyline points=""/>
<polyline points=""/>
<polyline points=""/>
<polyline points=""/>
<polyline points=""/>
<polyline points=""/>
<polyline points=""/>
<polyline points=""/>
<polyline points=""/>
<polyline points=""/>
<polyline points=""/>
<polyline points=""/>
<polyline points=""/>
<polyline points=""/>
<polyline points=""/>
<polyline points=""/>
<polyline points=""/>
<polyline points=""/>
<polyline points=""/>
<polyline points=""/>
<polyline points=""/>
<polyline points=""/>
<polyline points=""/>
<polyline points=""/>
<polyline points=""/>
<polyline points=""/>
<polyline points=""/>
<polyline points=""/>
<polyline points=""/>
<polyline points=""/>
<polyline points=""/>
<polyline points=""/>
<polyline points=""/>
<polyline points=""/>
<polyline points=""/>
<polyline points=""/>
<polyline points=""/>
<polyline points=""/>
<polyline points=""/>
<polyline points=""/>
<polyline points=""/>
<polyline points=""/>
<polyline points=""/>
<polyline points=""/>
<polyline points=""/>
<polyline points=""/>
<polyline points=""/>
<polyline points=""/>
<polyline points=""/>
<polyline points=""/>
<polyline points=""/>
<polyline points=""/>
<polyline points=""/>
<polyline points=""/>
<polyline points=""/>
<polyline points=""/>
<polyline points=""/>
<polyline points=""/>
<polyline points=""/>
<polyline points=""/>
<polyline points=""/>
<polyline points=""/>
<polyline points=""/>
<polyline points=""/>
<polyline points=""/>
<polyline points=""/>
<polyline points=""/>
<polyline points=""/>
<polyline points=""/>
<polyline points=""/>
<polyline points=""/>
<polyline points=""/>
<polyline points=""/>
<polyline points=""/>
<polyline points=""/>
<polyline points=""/>
<polyline points=""/>
<polyline points=""/>
<polyline points=""/>
<polyline points=""/>
<polyline points=""/>
<polyline points=""/>
<polyline points=""/>
<polyline points=""/>
<polyline points=""/>
<polyline points=""/>
<polyline points=""/>
<polyline points=""/>
<polyline points=""/>
<polyline points=""/>
<polyline points=""/>
<polyline points=""/>
<polyline points=""/>
<polyline points=""/>
<polyline points=""/>
<polyline points=""/>
<polyline points=""/>
<polyline points=""/>
<polyline points=""/>
<polyline points=""/>
<polyline points=""/>
<polyline points=""/>
<polyline points=""/>
<polyline points=""/>
<polyline points=""/>
<polyline points=""/>
<polyline points=""/>
<polyline points=""/>
<polyline points=""/>
<polyline points=""/>
<polyline points=""/>
<polyline points=""/>
<polyline points=""/>
<polyline points=""/>
<polyline points=""/>
<polyline points=""/>
<polyline points=""/>
<polyline points=""/>
<polyline points=""/>
<polyline points=""/>
<polyline points=""/>
<polyline points=""/>
<polyline points=""/>
<polyline points=""/>
<polyline points=""/>
<polyline points=""/>
<polyline points=""/>
<polyline points=""/>
<polyline points=""/>
<polyline points=""/>
<polyline points=""/>
<polyline points=""/>
<polyline points=""/>
<polyline points=""/>
<polyline points=""/>
<polyline points=""/>
<polyline points=""/>
<polyline points=""/>
<polyline points=""/>
<polyline points=""/>
<polyline points=""/>
<polyline points=""/>
<polyline points=""/>
<polyline points=""/>
<polyline points=""/>
<polyline points=""/>
<polyline points=""/>
<polyline points=""/>
<polyline points=""/>
<polyline points=""/>
<polyline points=""/>
<polyline points=""/>
<polyline points=""/>
<polyline points=""/>
<polyline points=""/>
<polyline points=""/>
<polyline points=""/>
<polyline points=""/>
<polyline points=""/>
<polyline points=""/>
<polyline points=""/>
<polyline points=""/>
<polyline points=""/>
<polyline points=""/>
<polyline points=""/>
<polyline points=""/>
<polyline points=""/>
<polyline points=""/>
<polyline points=""/>
<polyline points=""/>
<polyline points=""/>
<polyline points=""/>
<polyline points=""/>
<polyline points=""/>
<polyline points=""/>
<polyline points=""/>
<polyline points=""/>
<polyline points=""/>
<polyline points=""/>
<polyline points=""/>
<polyline points=""/>
<polyline points=""/>
<polyline points=""/>
<polyline points=""/>
<polyline points=""/>
<polyline points=""/>
<polyline points=""/>
<polyline points=""/>
<polyline points=""/>
<polyline points=""/>
<polyline points=""/>
<polyline points=""/>
<polyline points=""/>
<polyline points=""/>
<polyline points=""/>
<polyline points=""/>
<polyline points=""/>
<polyline points=""/>
<polyline points=""/>
<polyline points=""/>
<polyline points=""/>
<polyline points=""/>
<polyline points=""/>
<polyline points=""/>
<polyline points=""/>
<polyline points=""/>
<polyline points=""/>
<polyline points=""/>
<polyline points=""/>
<polyline points=""/>
<polyline points=""/>
<polyline points=""/>
<polyline points=""/>
<polyline points=""/>
<polyline points=""/>
<polyline points=""/>
<polyline points=""/>
<polyline points=""/>
<polyline points=""/>
<polyline points=""/>
<polyline points=""/>
<polyline points=""/>
<polyline points=""/>
<polyline points=""/>
<polyline points=""/>
<polyline points=""/>
<polyline points=""/>
<polyline points=""/>
<polyline points=""/>
<polyline points=""/>
<polyline points=""/>
<polyline points=""/>
<polyline points=""/>
<polyline points=""/>
<polyline points=""/>
<polyline points=""/>
<polyline points=""/>
<polyline points=""/>
<polyline points=""/>
<polyline points=""/>
<polyline points=""/>
<polyline points=""/>
<polyline points=""/>
<polyline points=""/>
<polyline points=""/>
<polyline points=""/>
<polyline points=""/>
<polyline points=""/>
<polyline points=""/>
<polyline points=""/>
<polyline points=""/>
<polyline points=""/>
<polyline points=""/>
<polyline points=""/>
<polyline points=""/>
</g>
</svg>